<?xml version="1.0" encoding="utf-8"?>
<!-- Generator: Adobe Illustrator 28.0.0, SVG Export Plug-In . SVG Version: 6.00 Build 0)  -->
<svg version="1.1" id="Layer_1" xmlns="http://www.w3.org/2000/svg" xmlns:xlink="http://www.w3.org/1999/xlink" x="0px" y="0px"
	 viewBox="0 0 2500 2500" style="enable-background:new 0 0 2500 2500;" xml:space="preserve">
<style type="text/css">
	.st0{fill:#A6A6A6;}
	.st1{fill:#F2F2F2;}
</style>
<g>
	<path class="st0" d="M2401.7,763.4c-63-148.9-153.1-282.5-267.8-397.3c-114.8-114.8-248.4-204.9-397.3-267.8
		C1582.4,33.1,1418.7,0,1250,0c-168.7,0-332.4,33.1-486.6,98.3c-148.9,63-282.5,153.1-397.3,267.8S161.2,614.6,98.3,763.4
		C33.1,917.6,0,1081.3,0,1250c0,168.7,33.1,332.4,98.3,486.6c63,148.9,153.1,282.5,267.8,397.3c25.6,25.6,52.2,50,79.6,73.1l26-86.4
		c22-85.6,57.9-166.5,106.6-240.5c47.9-72.8,106.9-137,175.5-190.8c69.3-54.4,146.4-96.8,229.1-126c85.6-30.2,175.5-45.5,267-45.5
		c91.5,0,181.4,15.3,267,45.5c82.8,29.2,159.9,71.5,229.1,126c68.6,53.9,127.6,118.1,175.5,190.8c48.7,74,84.6,154.9,106.6,240.5
		l23.4,88.6c28.4-23.8,55.8-48.9,82.3-75.3c114.8-114.8,204.9-248.4,267.8-397.3c65.2-154.2,98.3-317.9,98.3-486.6
		C2500,1081.3,2466.9,917.6,2401.7,763.4z"/>
	<path class="st1" d="M2028.2,2120.6c-22-85.6-57.9-166.5-106.6-240.5c-47.9-72.8-106.9-137-175.5-190.8
		c-69.3-54.4-146.4-96.8-229.1-126c-85.6-30.2-175.5-45.5-267-45.5c-91.5,0-181.4,15.3-267,45.5c-82.8,29.2-159.9,71.5-229.1,126
		c-68.6,53.9-127.6,118.1-175.5,190.8c-48.7,74-84.6,154.9-106.6,240.5l-26,86.4c12.7,10.7,25.7,21.2,38.8,31.4
		c85.3,66.3,178.7,121,278.9,163.4c154.2,65.2,317.9,98.3,486.6,98.3c168.7,0,332.4-33.1,486.6-98.3
		c108.5-45.9,208.9-106.2,299.8-180c5.1-4.1,10.2-8.3,15.2-12.6L2028.2,2120.6z"/>
	<path class="st1" d="M1661.3,797.5c-22.5-53.2-54.7-100.9-95.6-141.9c-41-41-88.7-73.1-141.9-95.6
		c-55.1-23.3-113.6-35.1-173.8-35.1s-118.7,11.8-173.8,35.1c-53.2,22.5-100.9,54.7-141.9,95.6c-41,41-73.1,88.7-95.6,141.9
		c-23.3,55.1-35.1,113.6-35.1,173.8c0,60.2,11.8,118.7,35.1,173.8c22.5,53.2,54.7,100.9,95.6,141.9c41,41,88.7,73.1,141.9,95.6
		c55.1,23.3,113.6,35.1,173.8,35.1s118.7-11.8,173.8-35.1c53.2-22.5,100.9-54.7,141.9-95.6c41-41,73.1-88.7,95.6-141.9
		c23.3-55.1,35.1-113.6,35.1-173.8C1696.4,911.1,1684.6,852.6,1661.3,797.5z"/>
</g>
</svg>
