<?xml version="1.0" encoding="UTF-8"?>
<svg id="_Слой_2" data-name="Слой 2" xmlns="http://www.w3.org/2000/svg" viewBox="0 0 103.39 88.69">
  <defs>
    <style>
      .cls-1 {
        fill: #fff;
        stroke: #ec6718;
        stroke-miterlimit: 10;
        stroke-width: .5px;
      }

      .cls-2 {
        fill: #ec6717;
        stroke-width: 0px;
      }
    </style>
  </defs>
  <g id="_Слой_1-2" data-name="Слой 1">
    <g>
      <path class="cls-1" d="m85.91,14.49c0-.08,0-.16,0-.25h-.93c0,.16,0,.32,0,.48-1.62,0-3.23,0-4.85-.01,0-.55,0-1.09,0-1.64-.52,0-1.03,0-1.55,0,0-.93-.01-1.87-.02-2.8-.22,0-.43,0-.65,0,0,1.18.01,2.37.02,3.55-.32,0-.64,0-.96.01,0-.35-.02-.7-.03-1.05h-18.18c0-.18,0-.35,0-.53-.24,0-.48,0-.72-.01-.16,0-.32,0-.48,0,0-.15,0-.3,0-.46,0-.41-.01-.83-.02-1.24h-.61c0,.31,0,.61,0,.92-.12,0-.24,0-.36,0,0,.43,0,.86,0,1.28h-.9c-.44.23-1.1.5-1.94.62-.57.08-1.06.07-1.45.03.03-.15.06-.3.08-.45.08-.21.1-.38.11-.5.04-.38-.06-.59-.1-1.2-.01-.15-.02-.27-.02-.34.29-.05,1.15-.24,1.75-.99.58-.72.6-1.54.6-2.1,0-.6-.17-1.18-.53-2.33-.25-.81-.39-1.22-.68-1.5-.33-.33-.6-.34-1.56-.79-.7-.32-.98-.51-1.31-.68-1.02-.51-2.38-.77-3.51-.71-2.09.11-4.52,1.43-5.4,3.6-.15.38-.59,1.45-.38,2.7.25,1.47.6,2.33.6,2.33.17.42.36.79.23,1.2-.13.4-.54.74-.83.68-.23-.06-.22-.34-.45-.6-.49-.56-1.5-.43-1.88-.38-.64.09-1.37.36-2.25,1.13-.27.23-1.47,1.31-2.4,3.6,0,0-1.04,2.55-1.15,6.19-.01.39-.04.78-.05,1.16-.02.92.03,1.12-.11,1.48-.06.14-.27.67-.79.93-.35.17-.5.06-1.51.1-1.02.04-1.23.17-1.34.28-.3.28-.33.71-.34.91-.15,2.54-.86,3.19-.49,5.69.17,1.17.27,1.76.75,2.06.72.45,1.64-.12,2.19.48.23.25.36.67.21.88-.19.27-.69-.03-1.43.26-.16.06-.6.25-.83.68-.16.31-.15.61-.14.75.19,3,.28,4.5.44,5.14.05.19.19.76.21,1.51,0,.28,0,.51,0,.65-.23,0-.39.07-.48.11-.27.13-.42.35-.55.53-.13.19-.2.35-.23.4-.93,2.12-.68,3.65-.68,3.65.1.58.25.78.38.9.32.29.65.19.9.45.29.31.21.84.15,1.12-.32,1.78-.89,3.54-1.13,5.18-.19,1.31-.06,1.78,0,1.98.18.55.42.76.38,1.25-.03.33-.22.62-.6,1.2-.43.65-.56.68-.68,1.05-.13.45,0,.61-.15.98-.17.4-.5.57-.75.75-.41.29-.8,1.15-1.58,2.85-.58,1.28-.64,1.55-.68,1.73-.18.97.11,1.1-.08,1.88-.19.8-.51.76-1.28,2.25-.57,1.13-.6,1.57-.6,1.8,0,.64.24,1.21.3,1.35.1.24.32.37.38.68.06.3-.03.56-.08.68,0,0-1.51,4.1-2.18,8.03-.06.34-.15.99.23,1.5.12.16.31.33.75.53.55.24,1.07.33,2.18.38,1.41.06,2.29-.02,2.85-.38.22-.14.33-.28.4-.4.08-.14.2-.42.1-.95-.11-.63-.39-.8-.6-1.3-.15-.37-.14-.61-.1-1.73.09-2.53.07-2.48.1-2.58.33-1.06,1.01-1.67,1.05-2.45,0-.06.01-.28.15-.5.19-.3.52-.41.65-.45.55-.17.77.08,1.15-.05.38-.13.59-.53.75-.95.52-1.36.25-2.07.55-3.3.38-1.57,1.4-2.82,1.4-3.85,0-.49-.05-.75-.05-.75-.1-.52-.26-.64-.2-.95.04-.22.12-.19.35-.65.09-.19.16-.38.3-.75.28-.75.23-.71.3-.85.27-.51.64-.46,1.1-.9.59-.56.29-.95.85-1.7.53-.71.97-.6,1.4-1.15.48-.62-.04-1.15.3-2.55.06-.24.12-.41.26-.81,1.03-2.87,1.12-2.57,2.09-4.94.24-.6.55-1.39,1.25-1.65.13-.05.34-.12.55-.05.47.16.31.79.85,1.35.27.28.61.42,1.3.7.24.1.44.09.7.25.29.18.48.42.59.6.97,1.45,1.94,2.9,2.91,4.35.14.37.55,1.32,1.45,1.7.27.11.69.22,1.15.25.64.04.76-.12,1.05,0,.68.29.79,1.48.8,1.65.06.65-.16.62-.15,1.6,0,.51.07.75-.1,1.05-.18.34-.38.28-.6.65-.27.45-.22.94-.2,1.1.03.26.12.31.2.7.06.29.07.51.07.62.05,1.06.25,1.67.28,3.08.02.86,0,1.81.25,2.59.04.12.09.24.15.36.29.59.63.7.8,1.15.08.2.08.37.09.63.03,1.24-.11,2.5.06,3.73.03.25.09.53,0,.9-.11.49-.36.67-.6,1.05-.41.65-.44,1.37-.5,2.8-.02.46-.01.84,0,1.1,1.08.28,1.9.48,2.36.61.1.03.31.09.49,0,.22-.12.18-.38.35-.5.41-.29,1.06,0,1.45.15,1.26.51,1.8.66,2.65.85.33.07.6.12.77.14,1.24,0,2.48.02,3.71.03.13-.02.43-.07.72-.32.13-.11.39-.38.45-.8.07-.52-.24-.92-.3-1-.29-.38-.69-.51-1.3-.7-1.86-.57-1.93-.59-1.95-.6,0,0,0,0,0,0-.61-.27-1.32-1.2-1.32-1.2-.7-.91-1.05-1.37-1.28-1.8-.12-.22-.28-.53-.41-.93-.53-1.63.13-2.31-.09-4.07-.03-.26-.1-.63.1-1,.18-.34.41-.35.55-.7.11-.29.02-.41.05-.9.04-.55.18-.56.2-.95.04-.63-.3-.82-.5-1.7-.1-.47-.1-.84-.1-1.05.01-1.25.53-1.35.55-2.5,0-.58-.12-.91.05-1.55.09-.32.14-.34.2-.65.1-.56-.04-.77,0-1.4.03-.39.08-.28.15-.85.06-.49.11-.91,0-1.4-.06-.28-.09-.2-.25-.75-.12-.42-.2-.66-.25-1-.09-.53-.03-.7-.2-.85-.13-.12-.23-.08-.5-.25,0,0-.2-.12-.4-.35-.79-.88-1-2.2-1-2.2-.26-1.61-1.2-3.49-2-5.1-1.02-2.05-1.8-3.61-3.05-4.55-.22-.17-.76-.55-1.1-1.25-.25-.52-.29-1.01-.35-1.75-.04-.47-.02-.8.1-1.15.09-.25.19-.54.45-.65.3-.13.72.09.95.2.19.09.28.17.46.18,0,0,.23.02.49-.13.37-.21.72-.97.85-2,.04-.31.11-.75.23-1.28.11-.45.21-.77.23-.83.18-.55.33-1.88.33-4.99-.08-.86-.37-1.28-.65-1.5-.33-.26-.63-.25-1-.65-.12-.13-.38-.42-.45-.85-.07-.45.06-1.13.55-1.35.28-.12.56-.05.7,0,1.88.97,3.77,1.93,5.65,2.9.22.13.59.32,1.1.4.15.02.75.1,1.45-.15.7-.25,1.13-.7,1.4-1,1.27-1.37,2.42-2.94,2.88-3.56,0-.78.02-1.56.03-2.34.16,0,.32,0,.48.01.11-.02.36-.1.56-.32.26-.29.32-.73.17-1.13-.15-.48-.3-.95-.45-1.43v-2.15c.37-.21.92-.57,1.43-1.19.38-.46.61-.92.75-1.26,2.82-.01,5.65-.02,8.47-.03v-1.02c.34,0,.67,0,1-.01v.43c.68,0,1.37,0,2.05,0v-.46c1.6.02,3.21.04,4.81.06v.4c.3,0,.61,0,.91,0,0-.07,0-.14,0-.21.75,0,1.49,0,2.24,0,0-.44,0-.89,0-1.33-.73,0-1.45-.02-2.18-.03Zm-26.27,5.9c-.22.21-.45.31-.59.36-.2-.14-.53-.43-.72-.9-.06-.15-.1-.3-.12-.42.64,0,1.28.01,1.91.02-.02.15-.11.59-.48.95Zm.42-2.47c-.6,0-1.2.02-1.8.03,0-.06,0-.11,0-.17.17-.05.29-.12.37-.18.13-.09.26-.18.26-.31,0-.14-.13-.19-.11-.31.01-.11.14-.17.25-.23.12-.06.6-.3,1-.06.11.06.18.14.22.2,0,.26,0,.53,0,.79-.06.08-.13.15-.19.23Z"/>
      <path class="cls-2" d="m71,47.72c-.22-.35-.7-.77-.9-.89-.04-.02-.07-.05-.07-.05-.19-.12-.35-.2-.46-.25,0-.09,0-.19,0-.28.21-.04.55-.13.86-.4.71-.6.88-1.74.48-2.44-.47-.8-1.42-.9-1.53-.91-2.67-.01-5.34-.03-8-.04,0,3.29-.02,6.59-.03,9.88,2.75,0,5.49.02,8.24.03.31-.08.84-.27,1.2-.75.28-.38.32-.89.38-1.91.06-1.06.09-1.6-.16-1.99Zm-7.52-3.34h5.38v2.04h-5.38v-2.04Zm5.44,6.16h-5.44v-2.05h5.44v2.05Z"/>
      <path class="cls-2" d="m82.1,42.39c-2.77,0-5.54.01-8.32.02-.22.12-.49.31-.76.57-.29.27-.49.55-.62.76-.05,2.89-.09,5.78-.14,8.67h.86c.21-.11.55-.29.86-.63.35-.36.52-.74.61-.97,0-.77.01-1.54.02-2.31h5.43c.02,1.29.03,2.58.05,3.88l2.01.03c0-3.34,0-6.68,0-10.02Zm-2.21,4.03h-5.24v-2.04h5.24v2.04Z"/>
      <path class="cls-2" d="m86.11,56.19c-.53,0-1.07,0-1.6,0,0-3.75-.01-7.49-.02-11.24.27-.44.54-.88.81-1.32v-4.09c1.21,0,2.41-.01,3.62-.02.03,1.38.05,2.77.08,4.15l.72,1.21c0,2.23.01,4.47.02,6.7-.07.04-.16.1-.25.17-.14.11-.23.23-.3.32h-1.28c-.33.2-.95.66-1.39,1.47-.64,1.17-.48,2.3-.41,2.65Z"/>
      <path class="cls-2" d="m85.28,38.38c1.22,0,2.44,0,3.66,0-.05-.83-.15-1.53-.24-2.09-.05-.26-.25-1.37-.73-2.79-.21-.61-.41-1.12-.57-1.5-.03-.13-.15-.22-.28-.22-.13,0-.24.08-.28.21-.18.39-.41.93-.63,1.59-.37,1.1-.53,1.97-.64,2.53-.11.6-.23,1.36-.29,2.26Z"/>
      <path class="cls-2" d="m90.96,54.01c-.5-.67-1.09-1.03-1.42-1.19-.44,0-.88.01-1.32.02-.2.12-.5.34-.78.69-.27.35-.4.68-.47.9,0,.57,0,1.14,0,1.72.06.3.23.89.71,1.46.52.62,1.14.89,1.43.99.43,0,.85,0,1.28-.01.19-.11.52-.31.81-.68.28-.36.41-.72.46-.93,0-.49,0-.98,0-1.48-.08-.34-.27-.91-.7-1.49Zm-.54,3.11c-.15.2-.31.35-.43.45-.35,0-.71,0-1.06,0-.19-.1-.52-.3-.8-.66-.21-.28-.33-.55-.39-.73,0-.41,0-.83,0-1.24.05-.13.13-.31.28-.5.16-.21.34-.34.46-.42h1.16c.17.1.43.28.66.57.22.27.34.53.41.71,0,.42.01.83.02,1.25-.05.15-.15.37-.31.59Z"/>
      <path class="cls-2" d="m88.42,55.31c.03-.07.13-.24.33-.36.3-.17.59-.09.64-.07.29.09.43.3.5.41.11.17.15.33.16.41.08.38-.03.71-.1.87-.4,0-.79,0-1.19-.01-.02,0-.11.01-.19-.04-.1-.07-.12-.18-.13-.19-.01-.34-.02-.68-.03-1.01Z"/>
      <path class="cls-2" d="m90.41,52.19c.36.15,1.04.5,1.62,1.23.13.16.58.76.78,1.67.19.84.08,1.53,0,1.9,1.4-.72,2.8-1.44,4.2-2.16.13-.1,1.2-.95,1.17-2.31-.02-1.2-.89-2.37-2.02-2.61-.52-.11-.98,0-1.25.1-1.5.72-3,1.44-4.5,2.17Z"/>
      <path class="cls-2" d="m97.79,49.65c.29.29.73.79,1.05,1.53.3.68.39,1.29.42,1.69.19-.03.98-.16,1.36-.8.58-.97-.11-2.58-1.24-2.85-.77-.19-1.46.33-1.6.43Z"/>
      <path class="cls-2" d="m101.55,51.43c0-.31-.02-.88-.3-1.52-.29-.65-.71-1.06-.95-1.26.78,0,1.55-.02,2.33-.03.08,0,.63,0,.74.28.07.16-.03.34-.1.45-.42.71-1.41,1.75-1.72,2.07Z"/>
      <path class="cls-1" d="m14.96,10.74c-3.6-.02-7.19-.04-10.79-.06-.02-2.36-.03-4.72-.05-7.08,3.63-.01,7.26-.03,10.89-.04.01-.28,0-1.12-.56-1.93-.79-1.11-2.04-1.27-2.24-1.29-3.18.01-6.35.03-9.53.04-.28.07-1.1.31-1.74,1.1-.53.65-.65,1.33-.69,1.63v8.17c.03.27.17,1.11.88,1.83.58.58,1.23.77,1.51.84h9.79c.26-.06,1.15-.31,1.83-1.18.66-.85.7-1.75.7-2.03Z"/>
      <path class="cls-1" d="m18.01,10.69c3.9,0,7.8,0,11.7.01,0-.65.02-1.31.02-1.96-3.14-.01-6.28-.03-9.42-.04-.27-.07-1.07-.31-1.7-1.08-.53-.65-.65-1.32-.69-1.61,0-1.1-.02-2.19-.03-3.29.08-.3.33-1.02,1.01-1.64.64-.58,1.32-.76,1.63-.83,3.17,0,6.34,0,9.52-.01.22.03,1.58.26,2.34,1.49.41.66.46,1.32.46,1.65-3.83.03-7.65.05-11.48.08,0,.72.02,1.43.03,2.15,3.18,0,6.36,0,9.54.01.26.06.98.26,1.58.93.48.55.64,1.13.69,1.4,0,1.17,0,2.33-.01,3.5-.05.26-.25,1.08-1.01,1.74-.66.57-1.37.69-1.65.73-3.41,0-6.81,0-10.22-.01-.25-.07-1.13-.35-1.75-1.24-.59-.84-.58-1.71-.56-1.98Z"/>
    </g>
  </g>
</svg>