<svg xmlns="http://www.w3.org/2000/svg" xml:space="preserve" viewBox="0 0 250 250" width="1em" height="1em" fill="currentColor" aria-hidden="true" focusable="false" class=""><path d="M205 20H45c-13.8 0-25 11.2-25 25v160c0 13.8 11.2 25 25 25h160c13.8 0 25-11.2 25-25V45c0-13.8-11.2-25-25-25m-16.4 145h-19.7c-1.5 0-4.6-.4-8.2-2.9-6.6-4.6-12.8-15.9-17.8-15.9-.3 0-.6.1-.9.2-4.3 1.4-5.6 5.6-5.6 10.9 0 1.9-1.3 2.7-4.8 2.7H122c-10.8 0-21.2-.2-33-13.1-17.3-19-33.5-52.6-33.5-52.6s-.9-1.9 0-3.1c.9-1 3-1.2 3.8-1.2h20.3s1.8.3 3.2 1.4c1.1.8 1.8 2.4 1.8 2.4s3.4 6.6 7.7 14c7.2 12.3 11 16.4 13.8 16.4.5 0 .9-.1 1.4-.3 4.1-2.3 2.9-20.5 2.9-20.5s.1-6.6-2.1-9.5c-1.7-2.3-4.8-2.9-6.2-3.1-1.1-.2.7-2.7 3.1-4 3.1-1.5 8.2-1.8 14.4-1.8h3c5.8.1 6 .7 8.3 1.2 6.9 1.7 4.6 8.1 4.6 23.6 0 4.9-.9 11.9 2.7 14.2.2.2.6.2 1 .2 2.3 0 7.2-2.9 15.2-16.3 4.4-7.6 7.8-15.2 7.8-15.2s.8-1.3 1.9-2 1.1-.7 2.5-.7h.1c1.6 0 17.5-.2 21-.2h.4c3.3 0 6.4.1 6.9 2.1.8 3.1-2.4 8.7-11 20.2-14.1 18.9-15.7 17.4-4 28.3 11.2 10.4 13.5 15.5 13.9 16.1 4.5 7.9-5.3 8.5-5.3 8.5" style="fill: rgb(230, 112, 4);"></path></svg>