<?xml version="1.0" encoding="UTF-8"?>
<svg id="_Слой_2" data-name="Слой 2" xmlns="http://www.w3.org/2000/svg" viewBox="0 0 31 29">
  <defs>
    <style>
      .equip_cls-1 {
        fill: #fff;
        stroke-width: 0px;
      }
    </style>
  </defs>
  <g id="_Слой_1-2" data-name="Слой 1">
    <g>
      <path class="equip_cls-1" d="m12.5,15.5v3h5v-3h-5Z"/>
      <path class="equip_cls-1" d="m23,6V1c-.33-.33-.67-.67-1-1h-12c-.33.33-.67.67-1,1v5H2c-.67,1-1.33,2-2,3v18c.67.67,1.33,1.33,2,2h27c.67-.67,1.33-1.33,2-2V9c-.67-1-1.33-2-2-3h-6ZM11.5,1.5h9v4h-9V1.5Zm15.5,12.5c-.7.95-1.85,1-2,1h-6c-.33,1.33-.67,2.67-1,4h-6c-.33,2.33-.67,4.67-1,7h-5c-.24-2.86.36-4.76,1-6,.56-1.09,1.31-1.98,1-3-.29-.94-1.19-1.03-2-2-.58-.69-1.14-1.87-1-4h22c.63.95.62,2.16,0,3Z"/>
    </g>
  </g>
</svg>